# xmcd
#
# Track frame offsets:
#	150
#	15049
#	32620
#	44831
#	61887
#	73596
#	85909
#	100482
#	114593
#	135461
#	154849
#	174795
#	194228
#	207679
#
# Disc length: 3068 seconds
#
# Revision: 1
# Processed by: cddbd v1.5.2PL0 Copyright (c) Steve Scherf et al.
# Submitted via: audiograbber 1.83.01
#
DISCID=c20bfa0e
DTITLE=Star Academy 6 - Chante Michel Polnareff
DYEAR=2006
DGENRE=Pop
TTITLE0=01 - Star Academy 6 - Tout Pour Ma Cherie
TTITLE1=02 - Cyril et Faustine - Goodbye Marylou
TTITLE2=03 - Star Academy 6 - Y'A Qu'Un Ch'Veu
TTITLE3=04 - Ludovic, Marina, Cynthia - Sous Quelle Etoile Suis-Je Ne ?
TTITLE4=05 - Dominique Cynthia, Elfy - L'Oiseau De Nuit
TTITLE5=06 - Fafa, Marina, Nicolas - Qui A Tue Grand-Maman ?
TTITLE6=07 - Star Academy 6 - La Poupee Qui Fait Non
TTITLE7=08 - Judith, Faustine, Marina, Cynthia et Cyril - Holidays
TTITLE8=09 - Star Academy 6 - Tous Les Bateaux, Tous Les Oiseaux
TTITLE9=10 - Gaël, Faustine, Judith, Cyril, Eloisha - Love Me, Please Love Me
TTITLE10=11 - Star Academy 6 - On Ira Tous Au Paradis
TTITLE11=12 - Brice, Cyril, Gaël, Bastien, Marina, Ludovic, Dominique - Lettre 
TTITLE11=A France
TTITLE12=13 - Ludovic, Judith, Gaël, Eloisha - L'Amour Avec Toi
TTITLE13=14 - Bastien, Judith, Brice, Elfy, David - Le Bal Des Laze
EXTD=
EXTT0=
EXTT1=
EXTT2=
EXTT3=
EXTT4=
EXTT5=
EXTT6=
EXTT7=
EXTT8=
EXTT9=
EXTT10=
EXTT11=
EXTT12=
EXTT13=
PLAYORDER=
